<?xml version="1.0" encoding="UTF-8"?>
<svg version="1.1" xmlns="http://www.w3.org/2000/svg" width="449" height="353">
<path d="M0 0 C2.53424201 2.23562114 5.00074337 4.52648007 7.453125 6.8515625 C8.88978516 8.19154297 8.88978516 8.19154297 10.35546875 9.55859375 C28.82988766 27.13605107 40.22835982 49.34927132 49.453125 72.8515625 C50.18015625 72.10712891 50.18015625 72.10712891 50.921875 71.34765625 C54.29320703 67.9309409 57.67896768 64.59696437 61.328125 61.4765625 C68.19804904 55.53427986 74.49106198 49.16724045 80.203125 42.1015625 C80.94046875 41.19148438 81.6778125 40.28140625 82.4375 39.34375 C83.64210124 37.85433994 84.84179796 36.36091099 86.03125 34.859375 C88.71527938 31.77716543 91.0037774 30.41111608 94.953125 29.7265625 C99.50998922 29.50371417 102.03115745 30.76344545 105.453125 33.8515625 C108.04348848 37.26613254 107.88421241 40.68438421 107.453125 44.8515625 C100.48109825 56.42925612 90.35228291 66.14703892 80.890625 75.6640625 C80.02896729 76.53490479 79.16730957 77.40574707 78.27954102 78.30297852 C73.02841239 83.52926501 67.58682564 88.33924229 61.78540039 92.94799805 C58.9637885 95.24197219 58.9637885 95.24197219 56.453125 97.8515625 C56.27095509 100.30064661 56.27095509 100.30064661 56.703125 102.9765625 C56.81140625 103.86601562 56.9196875 104.75546875 57.03125 105.671875 C57.17046875 106.72117188 57.3096875 107.77046875 57.453125 108.8515625 C58.25945381 115.05077488 58.62418161 121.1487493 58.65625 127.3984375 C58.66195007 128.29032776 58.66765015 129.18221802 58.67352295 130.10113525 C58.68291574 131.98359007 58.68948398 133.8660609 58.69335938 135.74853516 C58.70295783 138.55272333 58.7339915 141.35614277 58.765625 144.16015625 C58.86423578 160.84188892 57.17385751 177.2808563 52.765625 193.4140625 C52.51071289 194.36112061 52.25580078 195.30817871 51.99316406 196.28393555 C44.09288266 224.57439963 29.78251657 248.82516322 9.453125 269.8515625 C8.53273438 270.84929687 8.53273438 270.84929687 7.59375 271.8671875 C-18.86274955 299.89536029 -61.06408604 314.56713223 -98.88305664 315.97583008 C-148.69916938 317.05262887 -194.09141284 304.90844411 -231.09960938 270.27758789 C-236.05693681 265.4998625 -240.4041227 260.3503956 -244.546875 254.8515625 C-245.34609375 253.81773437 -246.1453125 252.78390625 -246.96875 251.71875 C-258.63116124 236.30461887 -273.546875 212.55371294 -273.546875 192.8515625 C-274.31418945 192.80620361 -275.08150391 192.76084473 -275.87207031 192.71411133 C-284.44776713 192.1393517 -292.82822754 190.98722461 -301.296875 189.5390625 C-301.94896942 189.4286261 -302.60106384 189.3181897 -303.2729187 189.20440674 C-332.52334484 184.23720968 -332.52334484 184.23720968 -338.546875 179.8515625 C-340.56802146 176.28087043 -341.56670923 173.84327376 -341.484375 169.7265625 C-340.39639028 166.39007603 -338.94468477 164.39469408 -336.546875 161.8515625 C-329.00256705 158.07940852 -318.02262748 162.00717596 -310.359375 163.7265625 C-301.25772569 165.69930273 -292.26403384 167.5247921 -283.00390625 168.52734375 C-280.546875 168.8515625 -280.546875 168.8515625 -278.546875 169.8515625 C-278.68762451 168.94132324 -278.82837402 168.03108398 -278.97338867 167.09326172 C-280.29265992 158.01476842 -280.90065407 149.16705307 -280.859375 139.9765625 C-280.85721985 139.31236298 -280.8550647 138.64816345 -280.85284424 137.96383667 C-280.60377935 89.56246722 -265.40001712 42.41003821 -230.546875 7.8515625 C-208.50215603 -13.90686142 -180.73361137 -27.73049108 -150.546875 -34.1484375 C-149.80083008 -34.31214844 -149.05478516 -34.47585937 -148.28613281 -34.64453125 C-97.40155644 -45.27385148 -39.96277867 -33.71093293 0 0 Z M-187.546875 15.8515625 C-188.27132812 16.49480469 -188.99578125 17.13804688 -189.7421875 17.80078125 C-217.63331921 43.82874019 -230.15685404 86.00043844 -232.421875 123.04296875 C-232.95788877 139.3746383 -232.95872681 155.65518537 -230.546875 171.8515625 C-228.71351087 173.68492663 -225.88677766 173.02575309 -223.421875 173.0390625 C-141.17049005 172.76998448 -60.38120543 149.902333 8.453125 104.8515625 C2.32615483 67.29057145 -13.02334868 31.30126845 -43.77734375 7.23828125 C-87.90458559 -24.500443 -147.69869842 -20.96108816 -187.546875 15.8515625 Z M4.2265625 133.1953125 C3.36772461 133.69579102 2.50888672 134.19626953 1.62402344 134.71191406 C0.70137695 135.25299805 -0.22126953 135.79408203 -1.171875 136.3515625 C-9.52328208 141.184198 -17.92454515 145.75345991 -26.62402344 149.92480469 C-28.55679057 150.85634151 -30.47768116 151.80960558 -32.3984375 152.765625 C-92.67568946 182.39254695 -159.20146787 191.90299538 -225.546875 194.8515625 C-222.80864496 204.80742575 -219.90057142 214.31717922 -215.296875 223.6015625 C-214.57745728 225.0719397 -214.57745728 225.0719397 -213.84350586 226.57202148 C-210.0290491 234.20789222 -205.87215422 241.15315343 -200.546875 247.8515625 C-199.88051025 248.69871826 -199.88051025 248.69871826 -199.20068359 249.56298828 C-179.76337026 274.04133382 -153.8547098 288.94340543 -122.66699219 292.6574707 C-93.49736703 295.32788203 -64.27948585 287.59992225 -41.4387207 269.07055664 C-12.66111858 244.91338389 2.24905401 211.42515263 8.453125 174.8515625 C8.78957031 172.99724609 8.78957031 172.99724609 9.1328125 171.10546875 C11.18952087 157.79321252 10.6371407 144.28187749 10.453125 130.8515625 C7.79231834 130.8515625 6.51934955 131.84553822 4.2265625 133.1953125 Z " fill="#FFFFFF" transform="translate(341.546875,37.1484375)"/>
</svg>
